<?xml version="1.0" encoding="utf-8"?>
<!-- Generator: Adobe Illustrator 16.0.3, SVG Export Plug-In . SVG Version: 6.00 Build 0)  -->
<!DOCTYPE svg PUBLIC "-//W3C//DTD SVG 1.1//EN" "http://www.w3.org/Graphics/SVG/1.1/DTD/svg11.dtd">
<svg version="1.1" id="Layer_3" xmlns="http://www.w3.org/2000/svg" xmlns:xlink="http://www.w3.org/1999/xlink" x="0px" y="0px"
	 width="337.883px" height="51.853px" viewBox="66.893 24.976 337.883 51.853"
	 enable-background="new 66.893 24.976 337.883 51.853" xml:space="preserve">
<g>
	<path fill="#F2F2F2" d="M72.588,34.891h-5.695v-4.992h5.695V34.891z M72.588,66.462h-5.695v-25.36h5.695V66.462z"/>
	<path fill="#F2F2F2" d="M84.119,41.102l0.328,3.656c0.828-1.297,1.871-2.309,3.129-3.035s2.676-1.09,4.254-1.09
		c2.641,0,4.699,0.801,6.176,2.402s2.215,4.098,2.215,7.489v15.938h-5.695V50.571c0-1.907-0.395-3.262-1.184-4.067
		s-1.988-1.207-3.598-1.207c-1.109,0-2.102,0.246-2.977,0.738s-1.594,1.168-2.156,2.027v18.399h-5.695v-25.36H84.119z"/>
	<path fill="#F2F2F2" d="M121.408,66.462c-0.203-0.641-0.371-1.266-0.504-1.875s-0.223-1.219-0.27-1.828
		c-0.781,1.188-1.809,2.184-3.082,2.988s-2.699,1.207-4.277,1.207c-2.641,0-4.668-0.68-6.082-2.039s-2.121-3.227-2.121-5.602
		c0-2.453,0.969-4.363,2.906-5.73s4.664-2.051,8.18-2.051h4.43v-2.227c0-1.328-0.391-2.367-1.172-3.117s-1.898-1.125-3.352-1.125
		c-1.297,0-2.328,0.313-3.094,0.938s-1.148,1.43-1.148,2.414h-5.484l-0.023-0.141c-0.109-2,0.785-3.773,2.684-5.32
		s4.371-2.32,7.418-2.32c2.953,0,5.336,0.75,7.148,2.25s2.719,3.656,2.719,6.469v11.274c0,1.047,0.07,2.051,0.211,3.012
		s0.367,1.902,0.68,2.824H121.408z M114.424,62.384c1.438,0,2.73-0.359,3.879-1.078s1.91-1.539,2.285-2.461v-3.75h-4.523
		c-1.656,0-2.953,0.41-3.891,1.23s-1.406,1.785-1.406,2.895c0,0.969,0.316,1.738,0.949,2.309S113.252,62.384,114.424,62.384z"/>
	<path fill="#F2F2F2" d="M131.205,54.134c0-4.047,0.867-7.309,2.602-9.786s4.172-3.715,7.313-3.715c1.375,0,2.605,0.277,3.691,0.832
		s2.027,1.348,2.824,2.379V29.899h5.695v36.563h-4.781l-0.563-3.141c-0.813,1.188-1.789,2.09-2.93,2.707s-2.469,0.926-3.984,0.926
		c-3.109,0-5.531-1.133-7.266-3.398s-2.602-5.242-2.602-8.93V54.134z M136.9,54.626c0,2.344,0.449,4.211,1.348,5.602
		s2.324,2.086,4.277,2.086c1.203,0,2.223-0.258,3.059-0.773s1.52-1.25,2.051-2.203V48.274c-0.531-0.938-1.219-1.668-2.063-2.191
		s-1.844-0.785-3-0.785c-1.938,0-3.367,0.816-4.289,2.449s-1.383,3.762-1.383,6.387V54.626z"/>
	<path fill="#F2F2F2" d="M169.924,62.384c1.391,0,2.563-0.408,3.516-1.225c0.953-0.814,1.43-1.836,1.43-3.064h5.156l0.047,0.141
		c0.078,2.375-0.887,4.422-2.895,6.141s-4.426,2.578-7.254,2.578c-3.734,0-6.598-1.203-8.59-3.609s-2.988-5.453-2.988-9.141v-0.82
		c0-3.672,0.996-6.715,2.988-9.129s4.855-3.621,8.59-3.621c3.047,0,5.52,0.887,7.418,2.66s2.816,4.027,2.754,6.762l-0.047,0.141
		h-5.18c0-1.391-0.457-2.57-1.371-3.539s-2.105-1.453-3.574-1.453c-2.141,0-3.656,0.776-4.547,2.329s-1.336,3.5-1.336,5.839v0.82
		c0,2.387,0.445,4.35,1.336,5.887C166.268,61.614,167.783,62.384,169.924,62.384z"/>
	<path fill="#F2F2F2" d="M183.588,53.548c0-3.766,1.031-6.86,3.094-9.282c2.094-2.422,4.93-3.633,8.508-3.633
		c3.641,0,6.492,1.211,8.555,3.633c2.078,2.406,3.117,5.5,3.117,9.282v0.492c0,3.813-1.039,6.922-3.117,9.328
		c-2.063,2.391-4.898,3.586-8.508,3.586c-3.625,0-6.477-1.203-8.555-3.609c-2.063-2.406-3.094-5.508-3.094-9.305V53.548z
		 M189.283,54.028c0,2.465,0.484,4.479,1.453,6.039c0.953,1.543,2.453,2.316,4.5,2.316c1.984,0,3.469-0.773,4.453-2.316
		c1-1.561,1.5-3.574,1.5-6.039v-0.492c0-2.418-0.5-4.408-1.5-5.969c-0.984-1.576-2.484-2.364-4.5-2.364
		c-1.984,0-3.469,0.788-4.453,2.364c-0.969,1.576-1.453,3.565-1.453,5.969V54.028z"/>
	<path fill="#F2F2F2" d="M210.775,54.134c0-4.047,0.867-7.309,2.602-9.786s4.172-3.715,7.313-3.715c1.375,0,2.605,0.277,3.691,0.832
		s2.027,1.348,2.824,2.379V29.899h5.695v36.563h-4.781l-0.563-3.141c-0.813,1.188-1.789,2.09-2.93,2.707s-2.469,0.926-3.984,0.926
		c-3.109,0-5.531-1.133-7.266-3.398s-2.602-5.242-2.602-8.93V54.134z M216.471,54.626c0,2.344,0.449,4.211,1.348,5.602
		s2.324,2.086,4.277,2.086c1.203,0,2.223-0.258,3.059-0.773s1.52-1.25,2.051-2.203V48.274c-0.531-0.938-1.219-1.668-2.063-2.191
		s-1.844-0.785-3-0.785c-1.938,0-3.367,0.816-4.289,2.449s-1.383,3.762-1.383,6.387V54.626z"/>
</g>
<g>
	<path fill="#F2F2F2" d="M304.393,67.079c-3.594,0-6.457-1.176-8.59-3.527s-3.199-5.371-3.199-9.059v-0.938
		c0-3.688,1.059-6.747,3.176-9.176s4.77-3.637,7.957-3.621c3.422,0,6.043,1.035,7.863,3.105s2.73,4.848,2.73,8.333v3.352h-15.82
		l-0.047,0.117c0.094,2.008,0.684,3.65,1.77,4.928s2.59,1.916,4.512,1.916c1.531,0,2.844-0.188,3.938-0.563s2.148-0.914,3.164-1.617
		l1.828,3.734c-0.953,0.848-2.219,1.563-3.797,2.145C308.299,66.788,306.471,67.079,304.393,67.079z M303.736,45.328
		c-1.406,0-2.563,0.559-3.469,1.676s-1.469,2.535-1.688,4.254l0.047,0.117h10.055V50.79c0-1.61-0.41-2.922-1.23-3.938
		S305.393,45.328,303.736,45.328z"/>
	<path fill="#F2F2F2" d="M333.174,59.696c0-0.875-0.375-1.602-1.125-2.18s-2.148-1.086-4.195-1.523
		c-3.031-0.641-5.324-1.551-6.879-2.73s-2.332-2.785-2.332-4.817c0-2.125,0.898-3.938,2.695-5.438s4.164-2.25,7.102-2.25
		c3.094,0,5.551,0.762,7.371,2.285s2.691,3.41,2.613,5.66l-0.047,0.141h-5.461c0-1.047-0.398-1.945-1.195-2.695
		s-1.891-1.125-3.281-1.125c-1.375,0-2.422,0.309-3.141,0.926s-1.078,1.371-1.078,2.262s0.34,1.598,1.02,2.122
		c0.68,0.523,2.059,0.988,4.137,1.395c3.188,0.656,5.551,1.582,7.09,2.777s2.309,2.824,2.309,4.887c0,2.281-0.941,4.133-2.824,5.555
		s-4.363,2.133-7.441,2.133c-3.297,0-5.898-0.844-7.805-2.531s-2.813-3.625-2.719-5.813l0.047-0.141h5.297
		c0.063,1.469,0.594,2.539,1.594,3.211s2.219,1.008,3.656,1.008c1.469,0,2.602-0.281,3.398-0.844S333.174,60.649,333.174,59.696z"/>
	<path fill="#F2F2F2" d="M349.955,35.016h-5.695v-4.992h5.695V35.016z M349.955,66.587h-5.695v-25.36h5.695V66.587z"/>
	<path fill="#F2F2F2" d="M355.299,54.259c0-4.032,0.883-7.29,2.648-9.774s4.219-3.727,7.359-3.727c1.516,0,2.848,0.324,3.996,0.973
		s2.121,1.582,2.918,2.801l0.563-3.305h4.734v25.36c0,3.266-1.008,5.789-3.023,7.57s-4.875,2.672-8.578,2.672
		c-1.234,0-2.566-0.176-3.996-0.527s-2.723-0.816-3.879-1.395l1.219-4.477c0.938,0.484,1.973,0.863,3.105,1.137
		s2.301,0.41,3.504,0.41c2.063,0,3.57-0.441,4.523-1.324s1.43-2.238,1.43-4.066v-2.602c-0.797,1.016-1.738,1.785-2.824,2.309
		s-2.332,0.785-3.738,0.785c-3.109,0-5.547-1.133-7.313-3.398s-2.648-5.242-2.648-8.93V54.259z M360.994,54.751
		c0,2.328,0.465,4.191,1.395,5.59s2.371,2.098,4.324,2.098c1.219,0,2.246-0.254,3.082-0.762s1.512-1.238,2.027-2.191v-11.11
		c-0.531-0.922-1.215-1.645-2.051-2.168s-1.84-0.785-3.012-0.785c-1.953,0-3.402,0.82-4.348,2.461s-1.418,3.766-1.418,6.375V54.751z
		"/>
	<path fill="#F2F2F2" d="M388.674,41.227l0.328,3.656c0.828-1.297,1.871-2.309,3.129-3.035s2.676-1.09,4.254-1.09
		c2.641,0,4.699,0.801,6.176,2.402s2.215,4.098,2.215,7.489v15.938h-5.695V50.696c0-1.907-0.395-3.262-1.184-4.067
		s-1.988-1.207-3.598-1.207c-1.109,0-2.102,0.246-2.977,0.738s-1.594,1.168-2.156,2.027v18.399h-5.695v-25.36H388.674z"/>
</g>
<g>
	<linearGradient id="SVGID_1_" gradientUnits="userSpaceOnUse" x1="263.5703" y1="73.8757" x2="263.5703" y2="26.9768">
		<stop  offset="0" style="stop-color:#BB0000"/>
		<stop  offset="1" style="stop-color:#E40000"/>
	</linearGradient>
	<path fill="url(#SVGID_1_)" d="M288.021,70.276c0,1.988-1.612,3.6-3.601,3.6h-41.699c-1.988,0-3.601-1.611-3.601-3.6v-39.7
		c0-1.988,1.612-3.6,3.601-3.6h41.699c1.988,0,3.601,1.612,3.601,3.6V70.276z"/>
	<path fill="#F2F2F2" d="M255.738,60.37V40.484l4.047-0.004v19.89H255.738z M253.211,61.667l6.246,0.003h3.563
		c2.545,0,4.546-0.829,6.001-2.487c1.456-1.658,2.184-3.8,2.184-6.428v-4.699c0-2.599-0.728-4.728-2.184-6.386
		c-1.455-1.658-3.456-2.487-6.001-2.487h-3.662h-1.021l-5.126,0v-1.025V35.07h9.956c3.896,0,7.063,1.217,9.503,3.649
		s3.66,5.562,3.66,9.387v4.662c0,3.839-1.221,6.968-3.66,9.387c-2.439,2.418-5.607,3.628-9.503,3.628h-9.956V61.667z"/>
</g>
</svg>
