<?xml version="1.0" encoding="utf-8"?>
<!-- Generator: Adobe Illustrator 16.0.3, SVG Export Plug-In . SVG Version: 6.00 Build 0)  -->
<!DOCTYPE svg PUBLIC "-//W3C//DTD SVG 1.1//EN" "http://www.w3.org/Graphics/SVG/1.1/DTD/svg11.dtd">
<svg version="1.1" id="Layer_3" xmlns="http://www.w3.org/2000/svg" xmlns:xlink="http://www.w3.org/1999/xlink" x="0px" y="0px"
	 width="48.901px" height="46.899px" viewBox="239.12 26.976 48.901 46.899" enable-background="new 239.12 26.976 48.901 46.899"
	 xml:space="preserve">
<g display="none">
	<path display="inline" fill="#F2F2F2" d="M72.588,34.891h-5.695v-4.992h5.695V34.891z M72.588,66.462h-5.695V41.102h5.695V66.462z"
		/>
	<path display="inline" fill="#F2F2F2" d="M84.119,41.102l0.328,3.655c0.828-1.297,1.871-2.309,3.129-3.034
		c1.258-0.727,2.676-1.091,4.254-1.091c2.641,0,4.699,0.802,6.176,2.402s2.215,4.098,2.215,7.489v15.938h-5.695V50.571
		c0-1.907-0.395-3.262-1.184-4.067c-0.789-0.805-1.988-1.207-3.598-1.207c-1.109,0-2.102,0.246-2.977,0.738
		s-1.594,1.168-2.156,2.027v18.398h-5.695V41.101L84.119,41.102L84.119,41.102z"/>
	<path display="inline" fill="#F2F2F2" d="M121.408,66.462c-0.203-0.641-0.371-1.266-0.504-1.875
		c-0.133-0.608-0.223-1.219-0.27-1.828c-0.781,1.188-1.809,2.185-3.082,2.988c-1.273,0.804-2.699,1.207-4.277,1.207
		c-2.641,0-4.668-0.68-6.082-2.039c-1.414-1.358-2.121-3.227-2.121-5.602c0-2.453,0.969-4.363,2.906-5.73s4.664-2.051,8.18-2.051
		h4.43v-2.227c0-1.328-0.391-2.367-1.172-3.117c-0.781-0.75-1.898-1.125-3.352-1.125c-1.297,0-2.328,0.313-3.094,0.938
		c-0.766,0.625-1.148,1.431-1.148,2.414h-5.484l-0.023-0.141c-0.109-2,0.785-3.773,2.684-5.32s4.371-2.32,7.418-2.32
		c2.953,0,5.336,0.75,7.148,2.25s2.719,3.656,2.719,6.47v11.273c0,1.047,0.07,2.052,0.211,3.013c0.141,0.961,0.367,1.901,0.68,2.823
		L121.408,66.462L121.408,66.462z M114.424,62.384c1.438,0,2.73-0.358,3.879-1.077c1.149-0.72,1.91-1.539,2.285-2.461v-3.75h-4.523
		c-1.656,0-2.953,0.409-3.891,1.229s-1.406,1.785-1.406,2.896c0,0.969,0.316,1.737,0.949,2.309
		C112.35,62.1,113.252,62.384,114.424,62.384z"/>
	<path display="inline" fill="#F2F2F2" d="M131.205,54.134c0-4.047,0.867-7.309,2.602-9.785c1.735-2.478,4.172-3.716,7.313-3.716
		c1.375,0,2.605,0.277,3.691,0.832c1.086,0.556,2.027,1.349,2.824,2.379V29.899h5.695v36.563h-4.781l-0.563-3.141
		c-0.813,1.188-1.789,2.09-2.93,2.707s-2.469,0.926-3.984,0.926c-3.109,0-5.531-1.133-7.266-3.397
		c-1.735-2.266-2.602-5.242-2.602-8.931L131.205,54.134L131.205,54.134z M136.9,54.626c0,2.345,0.449,4.211,1.348,5.603
		c0.899,1.391,2.324,2.086,4.277,2.086c1.203,0,2.223-0.258,3.059-0.773c0.836-0.515,1.52-1.25,2.051-2.203V48.274
		c-0.531-0.938-1.219-1.668-2.063-2.191c-0.844-0.522-1.844-0.785-3-0.785c-1.938,0-3.367,0.816-4.289,2.449
		c-0.922,1.633-1.383,3.762-1.383,6.387V54.626z"/>
	<path display="inline" fill="#F2F2F2" d="M169.924,62.384c1.391,0,2.563-0.407,3.516-1.225c0.953-0.813,1.431-1.836,1.431-3.063
		h5.155l0.048,0.141c0.077,2.375-0.888,4.422-2.896,6.141c-2.008,1.72-4.426,2.578-7.254,2.578c-3.734,0-6.598-1.203-8.59-3.608
		c-1.992-2.406-2.988-5.453-2.988-9.142v-0.82c0-3.672,0.996-6.715,2.988-9.129s4.855-3.621,8.59-3.621
		c3.047,0,5.52,0.888,7.418,2.66c1.898,1.773,2.816,4.027,2.754,6.763l-0.047,0.141h-5.18c0-1.391-0.457-2.57-1.371-3.539
		s-2.105-1.453-3.574-1.453c-2.141,0-3.656,0.776-4.547,2.329s-1.336,3.5-1.336,5.839v0.82c0,2.387,0.445,4.35,1.336,5.887
		C166.268,61.614,167.783,62.384,169.924,62.384z"/>
	<path display="inline" fill="#F2F2F2" d="M183.588,53.548c0-3.766,1.031-6.859,3.094-9.281c2.094-2.423,4.93-3.634,8.508-3.634
		c3.642,0,6.492,1.211,8.556,3.634c2.078,2.405,3.116,5.5,3.116,9.281v0.492c0,3.813-1.038,6.922-3.116,9.328
		c-2.063,2.391-4.897,3.586-8.509,3.586c-3.625,0-6.477-1.203-8.555-3.608c-2.063-2.406-3.094-5.509-3.094-9.306V53.548
		L183.588,53.548z M189.283,54.028c0,2.465,0.484,4.479,1.453,6.039c0.953,1.543,2.453,2.315,4.5,2.315
		c1.984,0,3.469-0.772,4.453-2.315c1-1.562,1.5-3.574,1.5-6.039v-0.492c0-2.418-0.5-4.408-1.5-5.969
		c-0.984-1.576-2.484-2.364-4.5-2.364c-1.984,0-3.469,0.788-4.453,2.364c-0.969,1.576-1.453,3.564-1.453,5.969V54.028z"/>
	<path display="inline" fill="#F2F2F2" d="M210.775,54.134c0-4.047,0.867-7.309,2.602-9.785c1.734-2.478,4.172-3.716,7.313-3.716
		c1.375,0,2.605,0.277,3.691,0.832c1.086,0.556,2.027,1.349,2.824,2.379V29.899h5.695v36.563h-4.781l-0.563-3.141
		c-0.813,1.188-1.789,2.09-2.931,2.707s-2.469,0.926-3.983,0.926c-3.109,0-5.531-1.133-7.267-3.397
		c-1.735-2.266-2.603-5.242-2.603-8.931v-0.492H210.775z M216.471,54.626c0,2.345,0.449,4.211,1.348,5.603
		c0.899,1.391,2.324,2.086,4.277,2.086c1.203,0,2.223-0.258,3.059-0.773c0.837-0.515,1.521-1.25,2.052-2.203V48.274
		c-0.531-0.938-1.22-1.668-2.063-2.191c-0.844-0.522-1.844-0.785-3-0.785c-1.938,0-3.367,0.816-4.289,2.449
		s-1.383,3.762-1.383,6.387V54.626z"/>
</g>
<g display="none">
	<path display="inline" fill="#F2F2F2" d="M304.393,67.079c-3.594,0-6.457-1.176-8.59-3.527c-2.133-2.351-3.199-5.37-3.199-9.059
		v-0.938c0-3.688,1.06-6.747,3.176-9.177c2.117-2.429,4.771-3.637,7.957-3.621c3.423,0,6.043,1.035,7.863,3.105
		s2.73,4.848,2.73,8.333v3.352h-15.82l-0.047,0.117c0.094,2.008,0.684,3.65,1.77,4.928c1.086,1.278,2.591,1.916,4.513,1.916
		c1.53,0,2.844-0.188,3.938-0.563c1.094-0.375,2.147-0.914,3.164-1.617l1.827,3.734c-0.952,0.848-2.219,1.563-3.797,2.145
		C308.299,66.788,306.471,67.079,304.393,67.079z M303.736,45.328c-1.406,0-2.563,0.56-3.469,1.676
		c-0.906,1.117-1.47,2.535-1.688,4.254l0.047,0.117h10.056V50.79c0-1.609-0.41-2.922-1.23-3.938
		C306.631,45.836,305.393,45.328,303.736,45.328z"/>
	<path display="inline" fill="#F2F2F2" d="M333.174,59.696c0-0.875-0.375-1.603-1.125-2.18c-0.75-0.578-2.148-1.086-4.195-1.523
		c-3.03-0.641-5.324-1.551-6.879-2.729c-1.555-1.18-2.332-2.785-2.332-4.817c0-2.125,0.898-3.938,2.695-5.438s4.164-2.25,7.102-2.25
		c3.095,0,5.552,0.763,7.371,2.285c1.82,1.523,2.691,3.41,2.613,5.66l-0.047,0.141h-5.461c0-1.047-0.398-1.944-1.195-2.694
		s-1.891-1.125-3.281-1.125c-1.375,0-2.422,0.309-3.141,0.926s-1.078,1.371-1.078,2.262c0,0.892,0.34,1.599,1.021,2.122
		c0.68,0.523,2.059,0.988,4.137,1.396c3.188,0.655,5.552,1.582,7.09,2.776c1.539,1.195,2.31,2.824,2.31,4.888
		c0,2.28-0.941,4.133-2.824,5.555s-4.363,2.133-7.441,2.133c-3.297,0-5.898-0.844-7.805-2.531c-1.907-1.687-2.813-3.625-2.719-5.813
		l0.047-0.141h5.297c0.063,1.469,0.594,2.538,1.594,3.211c1,0.672,2.219,1.008,3.656,1.008c1.469,0,2.602-0.281,3.398-0.844
		C332.775,61.408,333.174,60.649,333.174,59.696z"/>
	<path display="inline" fill="#F2F2F2" d="M349.955,35.016h-5.695v-4.992h5.695V35.016z M349.955,66.587h-5.695V41.227h5.695V66.587
		z"/>
	<path display="inline" fill="#F2F2F2" d="M355.299,54.259c0-4.031,0.883-7.29,2.648-9.773c1.765-2.484,4.219-3.728,7.359-3.728
		c1.516,0,2.848,0.324,3.996,0.974c1.147,0.648,2.12,1.582,2.918,2.801l0.563-3.305h4.734v25.359c0,3.267-1.009,5.789-3.023,7.57
		c-2.016,1.781-4.875,2.672-8.578,2.672c-1.234,0-2.566-0.176-3.996-0.527c-1.43-0.351-2.723-0.815-3.879-1.395l1.219-4.477
		c0.938,0.483,1.973,0.862,3.105,1.137c1.132,0.273,2.301,0.41,3.504,0.41c2.063,0,3.57-0.441,4.523-1.324s1.43-2.238,1.43-4.066
		v-2.602c-0.797,1.016-1.738,1.785-2.824,2.309c-1.086,0.524-2.332,0.785-3.738,0.785c-3.109,0-5.547-1.133-7.313-3.397
		c-1.766-2.266-2.648-5.242-2.648-8.931V54.259z M360.994,54.751c0,2.328,0.465,4.191,1.395,5.59
		c0.93,1.399,2.371,2.099,4.324,2.099c1.219,0,2.246-0.254,3.082-0.763c0.836-0.508,1.512-1.237,2.027-2.19v-11.11
		c-0.531-0.922-1.215-1.645-2.051-2.168c-0.836-0.522-1.84-0.785-3.013-0.785c-1.952,0-3.401,0.82-4.348,2.461
		c-0.946,1.642-1.418,3.767-1.418,6.375L360.994,54.751L360.994,54.751z"/>
	<path display="inline" fill="#F2F2F2" d="M388.674,41.227l0.328,3.655c0.828-1.297,1.871-2.309,3.129-3.034
		c1.258-0.727,2.676-1.091,4.254-1.091c2.641,0,4.699,0.802,6.176,2.402c1.478,1.601,2.215,4.098,2.215,7.489v15.938h-5.694V50.696
		c0-1.907-0.396-3.262-1.185-4.067c-0.789-0.805-1.987-1.207-3.598-1.207c-1.109,0-2.102,0.246-2.977,0.738
		s-1.594,1.168-2.156,2.027v18.398h-5.695V41.226L388.674,41.227L388.674,41.227z"/>
</g>
<g>
	
		<linearGradient id="SVGID_1_" gradientUnits="userSpaceOnUse" x1="671.5313" y1="-313.1824" x2="671.5313" y2="-266.283" gradientTransform="matrix(1 0 0 -1 -407.96 -239.3071)">
		<stop  offset="0" style="stop-color:#BB0000"/>
		<stop  offset="1" style="stop-color:#E40000"/>
	</linearGradient>
	<path fill="url(#SVGID_1_)" d="M288.021,70.276c0,1.988-1.612,3.6-3.602,3.6h-41.699c-1.988,0-3.601-1.61-3.601-3.6v-39.7
		c0-1.988,1.612-3.6,3.601-3.6h41.699c1.988,0,3.602,1.611,3.602,3.6V70.276z"/>
	<path fill="#F2F2F2" d="M255.738,60.37V40.484l4.047-0.004v19.89H255.738z M253.211,61.667l6.246,0.003h3.563
		c2.545,0,4.547-0.829,6.002-2.486c1.455-1.658,2.184-3.801,2.184-6.429v-4.698c0-2.6-0.729-4.729-2.184-6.387
		c-1.455-1.657-3.457-2.486-6.002-2.486h-3.662h-1.021h-5.126v-1.025V35.07h9.956c3.896,0,7.063,1.217,9.503,3.648
		c2.439,2.433,3.66,5.563,3.66,9.388v4.662c0,3.839-1.221,6.968-3.66,9.387c-2.439,2.418-5.607,3.628-9.503,3.628h-9.956V61.667z"/>
</g>
</svg>
